<svg width="17" height="16" viewBox="0 0 17 16" fill="none" xmlns="http://www.w3.org/2000/svg">
<g id="straighten">
<path id="Vector" d="M4.5 2.33331C4.5 2.06665 4.6 1.83331 4.8 1.63331C5 1.43331 5.23333 1.33331 5.5 1.33331L11.5 1.33331C11.7556 1.33331 11.9861 1.43331 12.1917 1.63331C12.3972 1.83331 12.5 2.06665 12.5 2.33331V13.6666C12.5 13.9333 12.3972 14.1666 12.1917 14.3666C11.9861 14.5666 11.7556 14.6666 11.5 14.6666H5.5C5.23333 14.6666 5 14.5666 4.8 14.3666C4.6 14.1666 4.5 13.9333 4.5 13.6666L4.5 2.33331ZM5.5 2.33331L5.5 13.6666H11.5V11.5H8.5V10.5H11.5V8.49998H8.5V7.49998H11.5V5.49998H8.5V4.49998H11.5V2.33331L5.5 2.33331ZM8.5 4.49998V5.49998V4.49998ZM8.5 7.49998V8.49998V7.49998ZM8.5 10.5V11.5V10.5Z" fill="#1D1D1D"/>
</g>
</svg>
