<svg width="16" height="16" viewBox="0 0 16 16" fill="none" xmlns="http://www.w3.org/2000/svg">
<path d="M4.78332 13.3333C4.62776 13.3333 4.49998 13.2722 4.39998 13.15C4.29998 13.0277 4.2722 12.8888 4.31665 12.7333L4.88331 10.5H2.96665C2.81109 10.5 2.68054 10.4361 2.57498 10.3083C2.46943 10.1805 2.43887 10.0388 2.48332 9.88329C2.50554 9.77218 2.56109 9.68051 2.64998 9.60829C2.73887 9.53607 2.84443 9.49996 2.96665 9.49996H5.13331L5.88331 6.49996H3.63331C3.47776 6.49996 3.3472 6.43607 3.24165 6.30829C3.13609 6.18051 3.10554 6.03885 3.14998 5.88329C3.1722 5.77218 3.22776 5.68051 3.31665 5.60829C3.40554 5.53607 3.51109 5.49996 3.63331 5.49996H6.13331L6.74998 3.03329C6.7722 2.92218 6.82498 2.83329 6.90832 2.76663C6.99165 2.69996 7.08887 2.66663 7.19998 2.66663C7.35554 2.66663 7.48054 2.72774 7.57498 2.84996C7.66943 2.97218 7.69998 3.11107 7.66665 3.26663L7.11665 5.49996H10.1333L10.75 3.03329C10.7722 2.92218 10.825 2.83329 10.9083 2.76663C10.9916 2.69996 11.0889 2.66663 11.2 2.66663C11.3555 2.66663 11.4805 2.72774 11.575 2.84996C11.6694 2.97218 11.7 3.11107 11.6666 3.26663L11.1166 5.49996H13.0333C13.1889 5.49996 13.3194 5.56385 13.425 5.69163C13.5305 5.8194 13.5611 5.96107 13.5166 6.11663C13.4944 6.22774 13.4389 6.3194 13.35 6.39163C13.2611 6.46385 13.1555 6.49996 13.0333 6.49996H10.8666L10.1166 9.49996H12.3666C12.5222 9.49996 12.6528 9.56385 12.7583 9.69163C12.8639 9.8194 12.8944 9.96107 12.85 10.1166C12.8278 10.2277 12.7722 10.3194 12.6833 10.3916C12.5944 10.4638 12.4889 10.5 12.3666 10.5H9.86665L9.24998 12.9666C9.22776 13.0555 9.18054 13.1388 9.10831 13.2166C9.03609 13.2944 8.92776 13.3333 8.78331 13.3333C8.62776 13.3333 8.49998 13.2722 8.39998 13.15C8.29998 13.0277 8.2722 12.8888 8.31665 12.7333L8.88331 10.5H5.86665L5.24998 12.9666C5.22776 13.0555 5.18054 13.1388 5.10831 13.2166C5.03609 13.2944 4.92776 13.3333 4.78332 13.3333ZM6.11665 9.49996H9.13331L9.88331 6.49996H6.86665L6.11665 9.49996Z" fill="#DC0A2D"/>
</svg>
