<svg width="17" height="16" viewBox="0 0 17 16" fill="none" xmlns="http://www.w3.org/2000/svg">
<g id="weight">
<path id="Vector" d="M4.28333 13H13.05L12 5.66669H5.33333L4.28333 13ZM8.66667 4.66669C8.95556 4.66669 9.19444 4.56946 9.38333 4.37502C9.57222 4.18058 9.66667 3.94446 9.66667 3.66669C9.66667 3.3778 9.57222 3.13891 9.38333 2.95002C9.19444 2.76113 8.95556 2.66669 8.66667 2.66669C8.38889 2.66669 8.15278 2.76113 7.95833 2.95002C7.76389 3.13891 7.66667 3.3778 7.66667 3.66669C7.66667 3.94446 7.76389 4.18058 7.95833 4.37502C8.15278 4.56946 8.38889 4.66669 8.66667 4.66669ZM10.4 4.66669H12C12.2556 4.66669 12.4778 4.74724 12.6667 4.90835C12.8556 5.06946 12.9667 5.2778 13 5.53335L14.0333 12.8667C14.0778 13.1667 14.0028 13.4306 13.8083 13.6584C13.6139 13.8861 13.3611 14 13.05 14H4.28333C3.97222 14 3.71945 13.8861 3.525 13.6584C3.33056 13.4306 3.25556 13.1667 3.3 12.8667L4.33333 5.53335C4.36667 5.2778 4.47778 5.06946 4.66667 4.90835C4.85556 4.74724 5.07778 4.66669 5.33333 4.66669H6.93333C6.84444 4.51113 6.77778 4.3528 6.73333 4.19169C6.68889 4.03058 6.66667 3.85558 6.66667 3.66669C6.66667 3.11113 6.86111 2.63891 7.25 2.25002C7.63889 1.86113 8.11111 1.66669 8.66667 1.66669C9.22222 1.66669 9.69444 1.86113 10.0833 2.25002C10.4722 2.63891 10.6667 3.11113 10.6667 3.66669C10.6667 3.85558 10.6444 4.03058 10.6 4.19169C10.5556 4.3528 10.4889 4.51113 10.4 4.66669ZM4.28333 13H13.05H4.28333Z" fill="#1D1D1D"/>
</g>
</svg>
